<mxfile host="app.diagrams.net" agent="Mozilla/5.0 (Windows NT 10.0; Win64; x64) AppleWebKit/537.36 (KHTML, like Gecko) Chrome/129.0.0.0 Safari/537.36" version="24.7.17">
  <diagram id="C5RBs43oDa-KdzZeNtuy" name="Page-1">
    <mxGraphModel dx="4327" dy="1740" grid="1" gridSize="10" guides="1" tooltips="1" connect="1" arrows="1" fold="1" page="1" pageScale="1" pageWidth="827" pageHeight="1169" background="#000000" math="0" shadow="0">
      <root>
        <mxCell id="WIyWlLk6GJQsqaUBKTNV-0" />
        <mxCell id="WIyWlLk6GJQsqaUBKTNV-1" parent="WIyWlLk6GJQsqaUBKTNV-0" />
        <mxCell id="WIyWlLk6GJQsqaUBKTNV-3" value="" style="rounded=1;whiteSpace=wrap;html=1;fontSize=12;glass=0;strokeWidth=1;shadow=0;fillColor=#007FFF;strokeColor=#FFFFFF;" parent="WIyWlLk6GJQsqaUBKTNV-1" vertex="1">
          <mxGeometry x="-684.01" y="10" width="130" height="120" as="geometry" />
        </mxCell>
        <mxCell id="WIyWlLk6GJQsqaUBKTNV-7" value="" style="rounded=1;whiteSpace=wrap;html=1;fontSize=12;glass=0;strokeWidth=1;shadow=0;fillColor=#007FFF;strokeColor=#FFFFFF;" parent="WIyWlLk6GJQsqaUBKTNV-1" vertex="1">
          <mxGeometry x="-679.01" y="446" width="120" height="70" as="geometry" />
        </mxCell>
        <mxCell id="2tToLLXR_E-FGZWZoV9Z-5" value="&lt;font style=&quot;font-size: 23px;&quot; color=&quot;#ffffff&quot;&gt;Sampling?&lt;/font&gt;" style="rhombus;whiteSpace=wrap;html=1;fillColor=#CC6600;" vertex="1" parent="WIyWlLk6GJQsqaUBKTNV-1">
          <mxGeometry x="-695.25" y="600" width="152.48" height="130" as="geometry" />
        </mxCell>
        <mxCell id="2tToLLXR_E-FGZWZoV9Z-6" value="" style="rounded=1;whiteSpace=wrap;html=1;fillColor=#007FFF;strokeColor=#FFFFFF;" vertex="1" parent="WIyWlLk6GJQsqaUBKTNV-1">
          <mxGeometry x="-679.01" y="1010" width="120" height="150" as="geometry" />
        </mxCell>
        <mxCell id="2tToLLXR_E-FGZWZoV9Z-16" value="" style="shape=image;verticalLabelPosition=bottom;labelBackgroundColor=default;verticalAlign=top;aspect=fixed;imageAspect=0;image=https://latex2image-output.s3.amazonaws.com/img-MdtrQdKeAqWw.png;" vertex="1" parent="WIyWlLk6GJQsqaUBKTNV-1">
          <mxGeometry x="-646.01" y="60" width="54" height="20" as="geometry" />
        </mxCell>
        <mxCell id="2tToLLXR_E-FGZWZoV9Z-21" value="" style="shape=image;verticalLabelPosition=bottom;labelBackgroundColor=default;verticalAlign=top;aspect=fixed;imageAspect=0;image=https://latex2image-output.s3.amazonaws.com/img-YrEPd9WTKbMs.png;" vertex="1" parent="WIyWlLk6GJQsqaUBKTNV-1">
          <mxGeometry x="-626.51" y="474" width="15" height="14" as="geometry" />
        </mxCell>
        <mxCell id="2tToLLXR_E-FGZWZoV9Z-22" value="" style="shape=image;verticalLabelPosition=bottom;labelBackgroundColor=default;verticalAlign=top;aspect=fixed;imageAspect=0;image=https://latex2image-output.s3.amazonaws.com/img-MdtrQdKeAqWw.png;" vertex="1" parent="WIyWlLk6GJQsqaUBKTNV-1">
          <mxGeometry x="-646.01" y="471" width="54" height="20" as="geometry" />
        </mxCell>
        <mxCell id="2tToLLXR_E-FGZWZoV9Z-24" value="" style="rounded=1;whiteSpace=wrap;html=1;fillColor=#007FFF;strokeColor=#FFFFFF;" vertex="1" parent="WIyWlLk6GJQsqaUBKTNV-1">
          <mxGeometry x="-679.01" y="1807.3" width="120" height="180" as="geometry" />
        </mxCell>
        <mxCell id="2tToLLXR_E-FGZWZoV9Z-25" value="" style="rounded=1;whiteSpace=wrap;html=1;fillColor=#007FFF;strokeColor=#FFFFFF;" vertex="1" parent="WIyWlLk6GJQsqaUBKTNV-1">
          <mxGeometry x="-679.01" y="1410.8" width="120" height="146.5" as="geometry" />
        </mxCell>
        <mxCell id="2tToLLXR_E-FGZWZoV9Z-31" value="&lt;font color=&quot;#ffffff&quot; style=&quot;font-size: 23px;&quot;&gt;Solve&lt;/font&gt;&lt;div&gt;&lt;font color=&quot;#ffffff&quot; style=&quot;font-size: 23px;&quot;&gt;&lt;br&gt;&lt;/font&gt;&lt;/div&gt;&lt;div&gt;&lt;font color=&quot;#ffffff&quot; style=&quot;font-size: 23px;&quot;&gt;&lt;br&gt;&lt;/font&gt;&lt;/div&gt;&lt;div&gt;&lt;font color=&quot;#ffffff&quot; style=&quot;font-size: 23px;&quot;&gt;&lt;br&gt;&lt;/font&gt;&lt;/div&gt;&lt;div&gt;&lt;font color=&quot;#ffffff&quot; style=&quot;font-size: 23px;&quot;&gt;&lt;br&gt;&lt;/font&gt;&lt;/div&gt;&lt;div&gt;&lt;font color=&quot;#ffffff&quot; style=&quot;font-size: 23px;&quot;&gt;&lt;br&gt;&lt;/font&gt;&lt;/div&gt;" style="rounded=0;whiteSpace=wrap;html=1;fillColor=#FF3333;" vertex="1" parent="WIyWlLk6GJQsqaUBKTNV-1">
          <mxGeometry x="-749.01" y="2057.3" width="260" height="192.7" as="geometry" />
        </mxCell>
        <mxCell id="2tToLLXR_E-FGZWZoV9Z-32" value="" style="shape=image;verticalLabelPosition=bottom;labelBackgroundColor=default;verticalAlign=top;aspect=fixed;imageAspect=0;image=https://latex2image-output.s3.amazonaws.com/img-BF2th61PQR67.png;" vertex="1" parent="WIyWlLk6GJQsqaUBKTNV-1">
          <mxGeometry x="-730.765" y="2111.46" width="223.51" height="102.1" as="geometry" />
        </mxCell>
        <mxCell id="2tToLLXR_E-FGZWZoV9Z-34" value="&lt;font style=&quot;font-size: 23px;&quot; color=&quot;#ffffff&quot;&gt;Solve&lt;/font&gt;&lt;div&gt;&lt;font style=&quot;font-size: 23px;&quot; color=&quot;#ffffff&quot;&gt;&lt;br&gt;&lt;/font&gt;&lt;/div&gt;&lt;div&gt;&lt;font style=&quot;font-size: 23px;&quot; color=&quot;#ffffff&quot;&gt;&lt;br&gt;&lt;/font&gt;&lt;/div&gt;&lt;div&gt;&lt;font style=&quot;font-size: 23px;&quot; color=&quot;#ffffff&quot;&gt;&lt;br&gt;&lt;/font&gt;&lt;/div&gt;&lt;div&gt;&lt;font style=&quot;font-size: 23px;&quot; color=&quot;#ffffff&quot;&gt;&lt;br&gt;&lt;/font&gt;&lt;/div&gt;" style="rounded=0;whiteSpace=wrap;html=1;fillColor=#FF3333;" vertex="1" parent="WIyWlLk6GJQsqaUBKTNV-1">
          <mxGeometry x="-120" y="2323.95" width="350" height="150" as="geometry" />
        </mxCell>
        <mxCell id="2tToLLXR_E-FGZWZoV9Z-36" value="&lt;font style=&quot;font-size: 23px;&quot; color=&quot;#ffffff&quot;&gt;Compute error and distance gradients&lt;/font&gt;&lt;div&gt;&lt;font style=&quot;font-size: 23px;&quot; color=&quot;#ffffff&quot;&gt;&lt;br&gt;&lt;/font&gt;&lt;/div&gt;&lt;div&gt;&lt;font style=&quot;font-size: 23px;&quot; color=&quot;#ffffff&quot;&gt;&lt;br&gt;&lt;/font&gt;&lt;/div&gt;" style="rounded=0;whiteSpace=wrap;html=1;fillColor=#FF3333;" vertex="1" parent="WIyWlLk6GJQsqaUBKTNV-1">
          <mxGeometry x="-132.5" y="1004.5" width="375" height="161" as="geometry" />
        </mxCell>
        <mxCell id="2tToLLXR_E-FGZWZoV9Z-37" value="" style="shape=image;verticalLabelPosition=bottom;labelBackgroundColor=default;verticalAlign=top;aspect=fixed;imageAspect=0;image=https://latex2image-output.s3.amazonaws.com/img-v2RJPJfK3Mm9.png;" vertex="1" parent="WIyWlLk6GJQsqaUBKTNV-1">
          <mxGeometry x="-636.39" y="2222.31" width="34.76" height="14.99" as="geometry" />
        </mxCell>
        <mxCell id="2tToLLXR_E-FGZWZoV9Z-39" value="" style="rounded=1;whiteSpace=wrap;html=1;fillColor=#007FFF;strokeColor=#FFFFFF;" vertex="1" parent="WIyWlLk6GJQsqaUBKTNV-1">
          <mxGeometry x="-5.0000000000000036" y="1581.05" width="120" height="180" as="geometry" />
        </mxCell>
        <mxCell id="2tToLLXR_E-FGZWZoV9Z-41" value="" style="shape=image;verticalLabelPosition=bottom;labelBackgroundColor=default;verticalAlign=top;aspect=fixed;imageAspect=0;image=https://latex2image-output.s3.amazonaws.com/img-ybBtHX3ae3xA.png;fontSize=23;fontColor=#FFFFFF;" vertex="1" parent="WIyWlLk6GJQsqaUBKTNV-1">
          <mxGeometry x="-108.49000000000001" y="2363.95" width="326.97" height="90" as="geometry" />
        </mxCell>
        <mxCell id="2tToLLXR_E-FGZWZoV9Z-42" value="" style="shape=image;verticalLabelPosition=bottom;labelBackgroundColor=default;verticalAlign=top;aspect=fixed;imageAspect=0;image=https://latex2image-output.s3.amazonaws.com/img-2kKmRhnK3fnX.png;" vertex="1" parent="WIyWlLk6GJQsqaUBKTNV-1">
          <mxGeometry x="-119" y="1094.5" width="323" height="23" as="geometry" />
        </mxCell>
        <mxCell id="2tToLLXR_E-FGZWZoV9Z-43" value="" style="rounded=1;whiteSpace=wrap;html=1;fillColor=#007FFF;strokeColor=#FFFFFF;" vertex="1" parent="WIyWlLk6GJQsqaUBKTNV-1">
          <mxGeometry x="-679.01" y="2320" width="120" height="157.9" as="geometry" />
        </mxCell>
        <mxCell id="2tToLLXR_E-FGZWZoV9Z-45" value="&lt;div&gt;&lt;font style=&quot;font-size: 23px;&quot; color=&quot;#ffffff&quot;&gt;Compute Delaunary triangulation,&lt;/font&gt;&lt;/div&gt;&lt;div&gt;&lt;font style=&quot;font-size: 23px;&quot; color=&quot;#ffffff&quot;&gt;barycentric coordinates and neighborhoods&lt;/font&gt;&lt;/div&gt;" style="rounded=0;whiteSpace=wrap;html=1;fillColor=#FF3333;" vertex="1" parent="WIyWlLk6GJQsqaUBKTNV-1">
          <mxGeometry x="-804" y="1217.3" width="369.98" height="152.7" as="geometry" />
        </mxCell>
        <mxCell id="2tToLLXR_E-FGZWZoV9Z-46" value="&lt;div&gt;&lt;font color=&quot;#ffffff&quot;&gt;&lt;span style=&quot;font-size: 23px;&quot;&gt;Compute equations parameters&lt;/span&gt;&lt;/font&gt;&lt;/div&gt;" style="rounded=0;whiteSpace=wrap;html=1;fillColor=#FF3333;" vertex="1" parent="WIyWlLk6GJQsqaUBKTNV-1">
          <mxGeometry x="-714.01" y="1597.3" width="190" height="147.5" as="geometry" />
        </mxCell>
        <mxCell id="2tToLLXR_E-FGZWZoV9Z-47" value="&lt;div&gt;&lt;font color=&quot;#ffffff&quot;&gt;&lt;span style=&quot;font-size: 23px;&quot;&gt;Compute Shannon entropies&lt;/span&gt;&lt;/font&gt;&lt;/div&gt;" style="rounded=0;whiteSpace=wrap;html=1;fillColor=#FF3333;" vertex="1" parent="WIyWlLk6GJQsqaUBKTNV-1">
          <mxGeometry x="-406.02" y="595.63" width="143" height="138.75" as="geometry" />
        </mxCell>
        <mxCell id="2tToLLXR_E-FGZWZoV9Z-48" value="" style="rounded=1;whiteSpace=wrap;html=1;fontSize=12;glass=0;strokeWidth=1;shadow=0;fillColor=#007FFF;strokeColor=#FFFFFF;" vertex="1" parent="WIyWlLk6GJQsqaUBKTNV-1">
          <mxGeometry x="-133" y="600" width="120" height="130" as="geometry" />
        </mxCell>
        <mxCell id="2tToLLXR_E-FGZWZoV9Z-52" value="&lt;div&gt;&lt;font color=&quot;#ffffff&quot;&gt;&lt;span style=&quot;font-size: 23px;&quot;&gt;Perform entropic sampling&lt;/span&gt;&lt;/font&gt;&lt;/div&gt;" style="rounded=0;whiteSpace=wrap;html=1;fillColor=#FF3333;" vertex="1" parent="WIyWlLk6GJQsqaUBKTNV-1">
          <mxGeometry x="-406.02" y="829.8" width="190" height="147.5" as="geometry" />
        </mxCell>
        <mxCell id="2tToLLXR_E-FGZWZoV9Z-53" value="&lt;div&gt;&lt;font color=&quot;#ffffff&quot;&gt;&lt;span style=&quot;font-size: 23px;&quot;&gt;Compute boundary of convex hull&lt;/span&gt;&lt;/font&gt;&lt;/div&gt;" style="rounded=0;whiteSpace=wrap;html=1;fillColor=#FF3333;" vertex="1" parent="WIyWlLk6GJQsqaUBKTNV-1">
          <mxGeometry x="-714.01" y="210" width="190" height="147.5" as="geometry" />
        </mxCell>
        <mxCell id="2tToLLXR_E-FGZWZoV9Z-55" value="&lt;div&gt;&lt;font color=&quot;#ffffff&quot;&gt;&lt;span style=&quot;font-size: 23px;&quot;&gt;Perform random sampling&lt;/span&gt;&lt;/font&gt;&lt;/div&gt;" style="rounded=0;whiteSpace=wrap;html=1;fillColor=#FF3333;" vertex="1" parent="WIyWlLk6GJQsqaUBKTNV-1">
          <mxGeometry x="-710" y="839.8" width="181.98" height="127.5" as="geometry" />
        </mxCell>
        <mxCell id="2tToLLXR_E-FGZWZoV9Z-56" value="&lt;div&gt;&lt;font color=&quot;#ffffff&quot;&gt;&lt;span style=&quot;font-size: 23px;&quot;&gt;Refine convex hull&lt;/span&gt;&lt;/font&gt;&lt;/div&gt;" style="rounded=0;whiteSpace=wrap;html=1;fillColor=#FF3333;" vertex="1" parent="WIyWlLk6GJQsqaUBKTNV-1">
          <mxGeometry x="-240" y="424.625" width="122.74" height="112.75" as="geometry" />
        </mxCell>
        <mxCell id="2tToLLXR_E-FGZWZoV9Z-58" value="&lt;font color=&quot;#ffffff&quot; style=&quot;font-size: 23px;&quot;&gt;Save results&lt;/font&gt;&lt;div&gt;&lt;font color=&quot;#ffffff&quot; style=&quot;font-size: 23px;&quot;&gt;&lt;br&gt;&lt;/font&gt;&lt;/div&gt;&lt;div&gt;&lt;font color=&quot;#ffffff&quot; style=&quot;font-size: 23px;&quot;&gt;&lt;br&gt;&lt;/font&gt;&lt;/div&gt;" style="whiteSpace=wrap;html=1;aspect=fixed;fillColor=#009900;" vertex="1" parent="WIyWlLk6GJQsqaUBKTNV-1">
          <mxGeometry x="-681.5" y="2650" width="124.98" height="124.98" as="geometry" />
        </mxCell>
        <mxCell id="2tToLLXR_E-FGZWZoV9Z-60" value="" style="shape=image;verticalLabelPosition=bottom;labelBackgroundColor=default;verticalAlign=top;aspect=fixed;imageAspect=0;image=https://latex2image-output.s3.amazonaws.com/img-1xF8dFwxJpcU.png;" vertex="1" parent="WIyWlLk6GJQsqaUBKTNV-1">
          <mxGeometry x="-646.51" y="2727.9" width="55" height="23" as="geometry" />
        </mxCell>
        <mxCell id="2tToLLXR_E-FGZWZoV9Z-61" value="&lt;font color=&quot;#ffffff&quot; style=&quot;font-size: 23px;&quot;&gt;Save metrics&lt;/font&gt;&lt;div&gt;&lt;font color=&quot;#ffffff&quot; style=&quot;font-size: 23px;&quot;&gt;&lt;br&gt;&lt;/font&gt;&lt;/div&gt;&lt;div&gt;&lt;font color=&quot;#ffffff&quot; style=&quot;font-size: 23px;&quot;&gt;&lt;br&gt;&lt;/font&gt;&lt;/div&gt;&lt;div&gt;&lt;font color=&quot;#ffffff&quot; style=&quot;font-size: 23px;&quot;&gt;&lt;br&gt;&lt;/font&gt;&lt;/div&gt;" style="whiteSpace=wrap;html=1;aspect=fixed;fillColor=#009900;" vertex="1" parent="WIyWlLk6GJQsqaUBKTNV-1">
          <mxGeometry x="-340" y="1812.9299999999998" width="168.75" height="168.75" as="geometry" />
        </mxCell>
        <mxCell id="2tToLLXR_E-FGZWZoV9Z-62" value="" style="shape=image;verticalLabelPosition=bottom;labelBackgroundColor=default;verticalAlign=top;aspect=fixed;imageAspect=0;image=https://latex2image-output.s3.amazonaws.com/img-5yM5T8eMtcMx.png;" vertex="1" parent="WIyWlLk6GJQsqaUBKTNV-1">
          <mxGeometry x="-270.74" y="1875.63" width="18" height="96" as="geometry" />
        </mxCell>
        <mxCell id="2tToLLXR_E-FGZWZoV9Z-65" value="" style="shape=image;verticalLabelPosition=bottom;labelBackgroundColor=default;verticalAlign=top;aspect=fixed;imageAspect=0;image=https://latex2image-output.s3.amazonaws.com/img-f6SwuTg9SAzw.png;" vertex="1" parent="WIyWlLk6GJQsqaUBKTNV-1">
          <mxGeometry x="-100.50000000000001" y="640" width="55" height="73" as="geometry" />
        </mxCell>
        <mxCell id="2tToLLXR_E-FGZWZoV9Z-66" value="" style="shape=image;verticalLabelPosition=bottom;labelBackgroundColor=default;verticalAlign=top;aspect=fixed;imageAspect=0;image=https://latex2image-output.s3.amazonaws.com/img-bHzm3ryF39tc.png;" vertex="1" parent="WIyWlLk6GJQsqaUBKTNV-1">
          <mxGeometry x="-651.51" y="1051" width="65" height="82" as="geometry" />
        </mxCell>
        <mxCell id="2tToLLXR_E-FGZWZoV9Z-67" value="" style="shape=image;verticalLabelPosition=bottom;labelBackgroundColor=default;verticalAlign=top;aspect=fixed;imageAspect=0;image=https://latex2image-output.s3.amazonaws.com/img-nZN45rubFQ3X.png;" vertex="1" parent="WIyWlLk6GJQsqaUBKTNV-1">
          <mxGeometry x="-652.51" y="2343.9500000000003" width="67" height="110" as="geometry" />
        </mxCell>
        <mxCell id="2tToLLXR_E-FGZWZoV9Z-68" value="" style="shape=image;verticalLabelPosition=bottom;labelBackgroundColor=default;verticalAlign=top;aspect=fixed;imageAspect=0;image=https://latex2image-output.s3.amazonaws.com/img-nZN45rubFQ3X.png;" vertex="1" parent="WIyWlLk6GJQsqaUBKTNV-1">
          <mxGeometry x="-652.51" y="1429.05" width="67" height="110" as="geometry" />
        </mxCell>
        <mxCell id="2tToLLXR_E-FGZWZoV9Z-69" value="" style="shape=image;verticalLabelPosition=bottom;labelBackgroundColor=default;verticalAlign=top;aspect=fixed;imageAspect=0;image=https://latex2image-output.s3.amazonaws.com/img-W641RCbcEQ6D.png;" vertex="1" parent="WIyWlLk6GJQsqaUBKTNV-1">
          <mxGeometry x="-652.51" y="1827.8" width="67" height="139" as="geometry" />
        </mxCell>
        <mxCell id="2tToLLXR_E-FGZWZoV9Z-70" value="" style="shape=image;verticalLabelPosition=bottom;labelBackgroundColor=default;verticalAlign=top;aspect=fixed;imageAspect=0;image=https://latex2image-output.s3.amazonaws.com/img-EccJXPWEK8pY.png;" vertex="1" parent="WIyWlLk6GJQsqaUBKTNV-1">
          <mxGeometry x="24.98" y="1603.55" width="67" height="135" as="geometry" />
        </mxCell>
        <mxCell id="2tToLLXR_E-FGZWZoV9Z-74" value="" style="endArrow=classic;html=1;rounded=0;exitX=0.5;exitY=1;exitDx=0;exitDy=0;entryX=0.5;entryY=0;entryDx=0;entryDy=0;" edge="1" parent="WIyWlLk6GJQsqaUBKTNV-1" source="2tToLLXR_E-FGZWZoV9Z-53" target="WIyWlLk6GJQsqaUBKTNV-7">
          <mxGeometry width="50" height="50" relative="1" as="geometry">
            <mxPoint x="-380" y="490" as="sourcePoint" />
            <mxPoint x="-330" y="440" as="targetPoint" />
          </mxGeometry>
        </mxCell>
        <mxCell id="2tToLLXR_E-FGZWZoV9Z-80" value="" style="shape=flexArrow;endArrow=classic;html=1;rounded=0;exitX=0.5;exitY=0;exitDx=0;exitDy=0;entryX=0.5;entryY=1;entryDx=0;entryDy=0;strokeColor=#FFFFFF;fillColor=default;fontColor=#FFFFFF;labelBackgroundColor=none;" edge="1" parent="WIyWlLk6GJQsqaUBKTNV-1" source="2tToLLXR_E-FGZWZoV9Z-39" target="2tToLLXR_E-FGZWZoV9Z-36">
          <mxGeometry x="0.0521" y="-60" width="50" height="50" relative="1" as="geometry">
            <mxPoint x="-405" y="1210" as="sourcePoint" />
            <mxPoint x="-355" y="1160" as="targetPoint" />
            <mxPoint as="offset" />
          </mxGeometry>
        </mxCell>
        <mxCell id="2tToLLXR_E-FGZWZoV9Z-82" value="" style="shape=flexArrow;endArrow=classic;html=1;rounded=0;exitX=0;exitY=0.5;exitDx=0;exitDy=0;entryX=1;entryY=0.5;entryDx=0;entryDy=0;strokeColor=#FFFFFF;fillColor=default;" edge="1" parent="WIyWlLk6GJQsqaUBKTNV-1" source="2tToLLXR_E-FGZWZoV9Z-36" target="2tToLLXR_E-FGZWZoV9Z-6">
          <mxGeometry width="50" height="50" relative="1" as="geometry">
            <mxPoint x="92" y="1387" as="sourcePoint" />
            <mxPoint x="108" y="1211" as="targetPoint" />
          </mxGeometry>
        </mxCell>
        <mxCell id="2tToLLXR_E-FGZWZoV9Z-83" value="" style="shape=flexArrow;endArrow=classic;html=1;rounded=0;exitX=0.5;exitY=1;exitDx=0;exitDy=0;entryX=0.5;entryY=0;entryDx=0;entryDy=0;strokeColor=#FFFFFF;fillColor=default;" edge="1" parent="WIyWlLk6GJQsqaUBKTNV-1" source="2tToLLXR_E-FGZWZoV9Z-45" target="2tToLLXR_E-FGZWZoV9Z-25">
          <mxGeometry width="50" height="50" relative="1" as="geometry">
            <mxPoint x="210" y="1397" as="sourcePoint" />
            <mxPoint x="-507" y="1413.5" as="targetPoint" />
          </mxGeometry>
        </mxCell>
        <mxCell id="2tToLLXR_E-FGZWZoV9Z-84" value="" style="shape=flexArrow;endArrow=classic;html=1;rounded=0;exitX=0.5;exitY=0;exitDx=0;exitDy=0;entryX=0.5;entryY=1;entryDx=0;entryDy=0;strokeColor=#FFFFFF;fillColor=default;" edge="1" parent="WIyWlLk6GJQsqaUBKTNV-1" source="2tToLLXR_E-FGZWZoV9Z-34" target="2tToLLXR_E-FGZWZoV9Z-39">
          <mxGeometry width="50" height="50" relative="1" as="geometry">
            <mxPoint x="112" y="1407" as="sourcePoint" />
            <mxPoint x="128" y="1231" as="targetPoint" />
          </mxGeometry>
        </mxCell>
        <mxCell id="2tToLLXR_E-FGZWZoV9Z-85" value="" style="shape=flexArrow;endArrow=classic;html=1;rounded=0;exitX=0.5;exitY=1;exitDx=0;exitDy=0;entryX=0.5;entryY=0;entryDx=0;entryDy=0;strokeColor=#FFFFFF;fillColor=default;" edge="1" parent="WIyWlLk6GJQsqaUBKTNV-1" source="2tToLLXR_E-FGZWZoV9Z-46" target="2tToLLXR_E-FGZWZoV9Z-24">
          <mxGeometry width="50" height="50" relative="1" as="geometry">
            <mxPoint x="122" y="1417" as="sourcePoint" />
            <mxPoint x="138" y="1241" as="targetPoint" />
          </mxGeometry>
        </mxCell>
        <mxCell id="2tToLLXR_E-FGZWZoV9Z-86" value="" style="shape=flexArrow;endArrow=classic;html=1;rounded=0;exitX=0.5;exitY=1;exitDx=0;exitDy=0;entryX=0.5;entryY=0;entryDx=0;entryDy=0;strokeColor=#FFFFFF;fillColor=default;" edge="1" parent="WIyWlLk6GJQsqaUBKTNV-1" source="2tToLLXR_E-FGZWZoV9Z-24" target="2tToLLXR_E-FGZWZoV9Z-31">
          <mxGeometry width="50" height="50" relative="1" as="geometry">
            <mxPoint x="132" y="1427" as="sourcePoint" />
            <mxPoint x="148" y="1251" as="targetPoint" />
          </mxGeometry>
        </mxCell>
        <mxCell id="2tToLLXR_E-FGZWZoV9Z-87" value="" style="shape=flexArrow;endArrow=classic;html=1;rounded=0;exitX=0.5;exitY=1;exitDx=0;exitDy=0;entryX=0.5;entryY=0;entryDx=0;entryDy=0;strokeColor=#FFFFFF;fillColor=default;" edge="1" parent="WIyWlLk6GJQsqaUBKTNV-1" source="2tToLLXR_E-FGZWZoV9Z-31" target="2tToLLXR_E-FGZWZoV9Z-43">
          <mxGeometry width="50" height="50" relative="1" as="geometry">
            <mxPoint x="142" y="1437" as="sourcePoint" />
            <mxPoint x="158" y="1261" as="targetPoint" />
          </mxGeometry>
        </mxCell>
        <mxCell id="2tToLLXR_E-FGZWZoV9Z-88" value="" style="shape=flexArrow;endArrow=classic;html=1;rounded=0;exitX=1;exitY=0.5;exitDx=0;exitDy=0;entryX=0;entryY=0.5;entryDx=0;entryDy=0;strokeColor=#FFFFFF;fillColor=default;" edge="1" parent="WIyWlLk6GJQsqaUBKTNV-1" source="2tToLLXR_E-FGZWZoV9Z-43" target="2tToLLXR_E-FGZWZoV9Z-34">
          <mxGeometry width="50" height="50" relative="1" as="geometry">
            <mxPoint x="-605" y="2024.9" as="sourcePoint" />
            <mxPoint x="-595" y="2094.9" as="targetPoint" />
          </mxGeometry>
        </mxCell>
        <mxCell id="2tToLLXR_E-FGZWZoV9Z-103" value="&lt;font style=&quot;font-size: 23px; background-color: rgb(255, 102, 255);&quot; color=&quot;#ffffff&quot;&gt;t times&lt;/font&gt;" style="edgeLabel;html=1;align=center;verticalAlign=middle;resizable=0;points=[];" vertex="1" connectable="0" parent="2tToLLXR_E-FGZWZoV9Z-88">
          <mxGeometry x="-0.1537" y="-1" relative="1" as="geometry">
            <mxPoint y="-1" as="offset" />
          </mxGeometry>
        </mxCell>
        <mxCell id="2tToLLXR_E-FGZWZoV9Z-89" value="" style="shape=flexArrow;endArrow=classic;html=1;rounded=0;exitX=0.5;exitY=1;exitDx=0;exitDy=0;entryX=0.5;entryY=0;entryDx=0;entryDy=0;strokeColor=#FFFFFF;fillColor=default;" edge="1" parent="WIyWlLk6GJQsqaUBKTNV-1" source="2tToLLXR_E-FGZWZoV9Z-25" target="2tToLLXR_E-FGZWZoV9Z-46">
          <mxGeometry width="50" height="50" relative="1" as="geometry">
            <mxPoint x="-595" y="2007" as="sourcePoint" />
            <mxPoint x="-585" y="2077" as="targetPoint" />
          </mxGeometry>
        </mxCell>
        <mxCell id="2tToLLXR_E-FGZWZoV9Z-90" value="" style="shape=flexArrow;endArrow=classic;html=1;rounded=0;exitX=0.5;exitY=1;exitDx=0;exitDy=0;strokeColor=#FFFFFF;fillColor=default;entryX=0.5;entryY=0;entryDx=0;entryDy=0;" edge="1" parent="WIyWlLk6GJQsqaUBKTNV-1" source="2tToLLXR_E-FGZWZoV9Z-43" target="2tToLLXR_E-FGZWZoV9Z-58">
          <mxGeometry width="50" height="50" relative="1" as="geometry">
            <mxPoint x="-444.2" y="2347.9" as="sourcePoint" />
            <mxPoint x="-454.9764605150496" y="2740.9" as="targetPoint" />
          </mxGeometry>
        </mxCell>
        <mxCell id="2tToLLXR_E-FGZWZoV9Z-92" value="" style="shape=flexArrow;endArrow=classic;html=1;rounded=0;exitX=0.5;exitY=1;exitDx=0;exitDy=0;entryX=0.5;entryY=0;entryDx=0;entryDy=0;strokeColor=#FFFFFF;fillColor=default;fontColor=#FFFFFF;labelBackgroundColor=none;" edge="1" parent="WIyWlLk6GJQsqaUBKTNV-1" source="2tToLLXR_E-FGZWZoV9Z-6" target="2tToLLXR_E-FGZWZoV9Z-45">
          <mxGeometry x="0.0521" y="-60" width="50" height="50" relative="1" as="geometry">
            <mxPoint x="65" y="1591" as="sourcePoint" />
            <mxPoint x="65" y="1196" as="targetPoint" />
            <mxPoint as="offset" />
          </mxGeometry>
        </mxCell>
        <mxCell id="2tToLLXR_E-FGZWZoV9Z-93" value="" style="shape=flexArrow;endArrow=classic;html=1;rounded=0;entryX=0;entryY=0.5;entryDx=0;entryDy=0;strokeColor=#FFFFFF;fillColor=default;exitX=1;exitY=0.5;exitDx=0;exitDy=0;" edge="1" parent="WIyWlLk6GJQsqaUBKTNV-1" source="2tToLLXR_E-FGZWZoV9Z-24" target="2tToLLXR_E-FGZWZoV9Z-61">
          <mxGeometry width="50" height="50" relative="1" as="geometry">
            <mxPoint x="-370" y="1710" as="sourcePoint" />
            <mxPoint x="-547" y="1095" as="targetPoint" />
          </mxGeometry>
        </mxCell>
        <mxCell id="2tToLLXR_E-FGZWZoV9Z-94" value="" style="shape=flexArrow;endArrow=classic;html=1;rounded=0;exitX=0.5;exitY=1;exitDx=0;exitDy=0;entryX=0.5;entryY=0;entryDx=0;entryDy=0;strokeColor=#FFFFFF;fillColor=default;" edge="1" parent="WIyWlLk6GJQsqaUBKTNV-1" source="2tToLLXR_E-FGZWZoV9Z-55" target="2tToLLXR_E-FGZWZoV9Z-6">
          <mxGeometry width="50" height="50" relative="1" as="geometry">
            <mxPoint x="-112" y="1105" as="sourcePoint" />
            <mxPoint x="-537" y="1105" as="targetPoint" />
          </mxGeometry>
        </mxCell>
        <mxCell id="2tToLLXR_E-FGZWZoV9Z-95" value="" style="shape=flexArrow;endArrow=classic;html=1;rounded=0;exitX=0.5;exitY=1;exitDx=0;exitDy=0;entryX=0.5;entryY=0;entryDx=0;entryDy=0;strokeColor=#FFFFFF;fillColor=default;" edge="1" parent="WIyWlLk6GJQsqaUBKTNV-1" source="2tToLLXR_E-FGZWZoV9Z-5" target="2tToLLXR_E-FGZWZoV9Z-55">
          <mxGeometry width="50" height="50" relative="1" as="geometry">
            <mxPoint x="-604.2500000000005" y="695" as="sourcePoint" />
            <mxPoint x="-571.77" y="1140" as="targetPoint" />
          </mxGeometry>
        </mxCell>
        <mxCell id="2tToLLXR_E-FGZWZoV9Z-96" value="" style="shape=flexArrow;endArrow=classic;html=1;rounded=0;exitX=1;exitY=0.5;exitDx=0;exitDy=0;entryX=0;entryY=0.5;entryDx=0;entryDy=0;strokeColor=#FFFFFF;fillColor=default;" edge="1" parent="WIyWlLk6GJQsqaUBKTNV-1" source="2tToLLXR_E-FGZWZoV9Z-5" target="2tToLLXR_E-FGZWZoV9Z-47">
          <mxGeometry width="50" height="50" relative="1" as="geometry">
            <mxPoint x="-528.0100000000002" y="630" as="sourcePoint" />
            <mxPoint x="-561.77" y="1150" as="targetPoint" />
          </mxGeometry>
        </mxCell>
        <mxCell id="2tToLLXR_E-FGZWZoV9Z-97" value="" style="shape=flexArrow;endArrow=classic;html=1;rounded=0;exitX=0.5;exitY=1;exitDx=0;exitDy=0;entryX=0.5;entryY=0;entryDx=0;entryDy=0;strokeColor=#FFFFFF;fillColor=default;" edge="1" parent="WIyWlLk6GJQsqaUBKTNV-1" source="2tToLLXR_E-FGZWZoV9Z-53" target="WIyWlLk6GJQsqaUBKTNV-7">
          <mxGeometry width="50" height="50" relative="1" as="geometry">
            <mxPoint x="-82" y="1135" as="sourcePoint" />
            <mxPoint x="-507" y="1135" as="targetPoint" />
          </mxGeometry>
        </mxCell>
        <mxCell id="2tToLLXR_E-FGZWZoV9Z-98" value="" style="shape=flexArrow;endArrow=classic;html=1;rounded=0;exitX=0.5;exitY=1;exitDx=0;exitDy=0;entryX=0.5;entryY=0;entryDx=0;entryDy=0;strokeColor=#FFFFFF;fillColor=default;" edge="1" parent="WIyWlLk6GJQsqaUBKTNV-1" source="WIyWlLk6GJQsqaUBKTNV-3" target="2tToLLXR_E-FGZWZoV9Z-53">
          <mxGeometry width="50" height="50" relative="1" as="geometry">
            <mxPoint x="-618.03" y="680" as="sourcePoint" />
            <mxPoint x="-643.03" y="815" as="targetPoint" />
          </mxGeometry>
        </mxCell>
        <mxCell id="2tToLLXR_E-FGZWZoV9Z-99" value="" style="shape=flexArrow;endArrow=classic;html=1;rounded=0;exitX=0.5;exitY=1;exitDx=0;exitDy=0;entryX=0.5;entryY=0;entryDx=0;entryDy=0;strokeColor=#FFFFFF;fillColor=default;" edge="1" parent="WIyWlLk6GJQsqaUBKTNV-1" source="WIyWlLk6GJQsqaUBKTNV-7" target="2tToLLXR_E-FGZWZoV9Z-5">
          <mxGeometry width="50" height="50" relative="1" as="geometry">
            <mxPoint x="-539" y="690" as="sourcePoint" />
            <mxPoint x="-564" y="825" as="targetPoint" />
          </mxGeometry>
        </mxCell>
        <mxCell id="2tToLLXR_E-FGZWZoV9Z-100" value="" style="shape=flexArrow;endArrow=classic;html=1;rounded=0;entryX=0.5;entryY=1;entryDx=0;entryDy=0;strokeColor=#FFFFFF;fillColor=default;exitX=0.5;exitY=1;exitDx=0;exitDy=0;" edge="1" parent="WIyWlLk6GJQsqaUBKTNV-1" source="WIyWlLk6GJQsqaUBKTNV-7" target="2tToLLXR_E-FGZWZoV9Z-56">
          <mxGeometry width="50" height="50" relative="1" as="geometry">
            <mxPoint x="-540" y="490" as="sourcePoint" />
            <mxPoint x="-549" y="550" as="targetPoint" />
            <Array as="points">
              <mxPoint x="-616" y="570" />
              <mxPoint x="-340" y="570" />
              <mxPoint x="-180" y="570" />
            </Array>
          </mxGeometry>
        </mxCell>
        <mxCell id="2tToLLXR_E-FGZWZoV9Z-102" value="&lt;font color=&quot;#ffffff&quot; style=&quot;font-size: 23px; background-color: rgb(255, 102, 255);&quot;&gt;R times&lt;/font&gt;" style="edgeLabel;html=1;align=center;verticalAlign=middle;resizable=0;points=[];" vertex="1" connectable="0" parent="2tToLLXR_E-FGZWZoV9Z-100">
          <mxGeometry x="-0.249" y="2" relative="1" as="geometry">
            <mxPoint as="offset" />
          </mxGeometry>
        </mxCell>
        <mxCell id="2tToLLXR_E-FGZWZoV9Z-101" value="" style="shape=flexArrow;endArrow=classic;html=1;rounded=0;exitX=0;exitY=0.5;exitDx=0;exitDy=0;entryX=1;entryY=0.5;entryDx=0;entryDy=0;strokeColor=#FFFFFF;fillColor=default;" edge="1" parent="WIyWlLk6GJQsqaUBKTNV-1" source="2tToLLXR_E-FGZWZoV9Z-56" target="WIyWlLk6GJQsqaUBKTNV-7">
          <mxGeometry width="50" height="50" relative="1" as="geometry">
            <mxPoint x="-541" y="490" as="sourcePoint" />
            <mxPoint x="-539" y="560" as="targetPoint" />
          </mxGeometry>
        </mxCell>
        <mxCell id="2tToLLXR_E-FGZWZoV9Z-104" value="" style="shape=flexArrow;endArrow=classic;html=1;rounded=0;exitX=1;exitY=0.5;exitDx=0;exitDy=0;entryX=0;entryY=0.5;entryDx=0;entryDy=0;strokeColor=#FFFFFF;fillColor=default;" edge="1" parent="WIyWlLk6GJQsqaUBKTNV-1" source="2tToLLXR_E-FGZWZoV9Z-47" target="2tToLLXR_E-FGZWZoV9Z-48">
          <mxGeometry width="50" height="50" relative="1" as="geometry">
            <mxPoint x="-533" y="675" as="sourcePoint" />
            <mxPoint x="-396" y="675" as="targetPoint" />
          </mxGeometry>
        </mxCell>
        <mxCell id="2tToLLXR_E-FGZWZoV9Z-105" value="" style="shape=flexArrow;endArrow=classic;html=1;rounded=0;exitX=0;exitY=0.5;exitDx=0;exitDy=0;entryX=1;entryY=0.5;entryDx=0;entryDy=0;strokeColor=#FFFFFF;fillColor=default;" edge="1" parent="WIyWlLk6GJQsqaUBKTNV-1" source="2tToLLXR_E-FGZWZoV9Z-52" target="2tToLLXR_E-FGZWZoV9Z-55">
          <mxGeometry width="50" height="50" relative="1" as="geometry">
            <mxPoint x="-253" y="675" as="sourcePoint" />
            <mxPoint x="-123" y="675" as="targetPoint" />
          </mxGeometry>
        </mxCell>
        <mxCell id="2tToLLXR_E-FGZWZoV9Z-106" value="" style="shape=flexArrow;endArrow=classic;html=1;rounded=0;exitX=0.5;exitY=1;exitDx=0;exitDy=0;entryX=1;entryY=0.5;entryDx=0;entryDy=0;strokeColor=#FFFFFF;fillColor=default;" edge="1" parent="WIyWlLk6GJQsqaUBKTNV-1" source="2tToLLXR_E-FGZWZoV9Z-48" target="2tToLLXR_E-FGZWZoV9Z-52">
          <mxGeometry width="50" height="50" relative="1" as="geometry">
            <mxPoint x="-396" y="914" as="sourcePoint" />
            <mxPoint x="-518" y="904" as="targetPoint" />
            <Array as="points">
              <mxPoint x="-73" y="904" />
            </Array>
          </mxGeometry>
        </mxCell>
      </root>
    </mxGraphModel>
  </diagram>
</mxfile>
